PathFileType	4	(X/Y/Z)	RBDS025\RBDS025runT45.trc
DataRate	CameraRate	NumFrames	NumMarkers	Units	OrigDataRate	OrigDataStartFrame	OrigNumFrames
150.000000	150.000000	4	33	mm	150.000000	3937	4500
Frame#	Time	L.ASIS			L.Heel.Bottom			L.Heel.Lateral			L.Heel.Top			L.Iliac.Crest			L.MT1			L.MT5			L.PSIS			L.Shank.Bottom.Lateral			L.Shank.Bottom.Medial			L.Shank.Top.Lateral			L.Shank.Top.Medial			L.Thigh.Bottom.Lateral			L.Thigh.Bottom.Medial			L.Thigh.Top.Lateral			L.Thigh.Top.Medial			R.ASIS			R.ASY			R.Heel.Bottom			R.Heel.Lateral			R.Heel.Top			R.Iliac.Crest			R.MT1			R.MT5			R.PSIS			R.Shank.Bottom.Lateral			R.Shank.Bottom.Medial			R.Shank.Top.Lateral			R.Shank.Top.Medial			R.Thigh.Bottom.Lateral			R.Thigh.Bottom.Medial			R.Thigh.Top.Lateral			R.Thigh.Top.Medial			
		X1	Y1	Z1	X2	Y2	Z2	X3	Y3	Z3	X4	Y4	Z4	X5	Y5	Z5	X6	Y6	Z6	X7	Y7	Z7	X8	Y8	Z8	X9	Y9	Z9	X10	Y10	Z10	X11	Y11	Z11	X12	Y12	Z12	X13	Y13	Z13	X14	Y14	Z14	X15	Y15	Z15	X16	Y16	Z16	X17	Y17	Z17	X18	Y18	Z18	X19	Y19	Z19	X20	Y20	Z20	X21	Y21	Z21	X22	Y22	Z22	X23	Y23	Z23	X24	Y24	Z24	X25	Y25	Z25	X26	Y26	Z26	X27	Y27	Z27	X28	Y28	Z28	X29	Y29	Z29	X30	Y30	Z30	X31	Y31	Z31	X32	Y32	Z32	X33	Y33	Z33	

3938	26.24666666666667	2084.8584269899	875.1194924321563	864.259492678469	1783.51420368802	47.76612436864784	990.7497251633827	1805.86552065802	69.59189334075683	944.7630293728963	1800.601001432161	89.5615871082816	993.6628237909904	2003.417298148762	948.9290958366443	817.7588314378937	1995.722851983247	33.54139731108819	988.6192585340722	1945.197401105607	44.93674410078332	885.2449401928091	1933.429017561856	947.7515385785592	930.3373930152416	1923.162919656935	160.6200696249638	915.5603733598277	1880.380715589597	192.5369318073326	932.7979265528267	1959.293110851476	226.8815944289732	886.8465421432337	1917.592689245302	258.0249899829781	902.0450971386916	2053.484676008828	534.3914523022537	821.1940835089227	1994.346889914134	518.9048935048849	860.1462498233388	2015.533664747373	634.9559732287994	803.8213700816669	1960.645094134352	621.8267011291999	844.252270695335	2106.929816587892	862.3394596232229	1062.222002951317	1684.60802548864	308.5623363411255	1058.27472275649	1666.03035680594	493.9527366995292	1012.54809670736	1683.167567841621	472.2245971656321	1058.806560617739	1707.914209688842	476.9533846352894	1016.392846511105	2059.846750233464	925.6101771450373	1112.514733914136	1640.566261238411	281.0040338264344	1016.554905698028	1637.232213367596	331.2575514207656	1117.11341644999	1946.929529855584	936.332706364345	1031.972657943768	1810.847372525114	425.4656748355794	1088.823156281257	1813.10747899066	462.1799132032304	1052.859056186136	1894.722084973159	432.714627094666	1098.837835806621	1892.972646973601	471.1256029457674	1062.324092795386	2085.211767596454	505.9443950232131	1130.081328543774	2026.659559819665	489.1237062644474	1093.012349261589	2047.002670796301	609.1820045037227	1143.410644338459	1989.333129170399	591.2788260921784	1111.631738195084	
3939	26.25333333333333	2084.040203508472	876.4590203485077	863.7621084136356	1753.699084614649	52.75844420339205	990.2607819700611	1776.520878530258	73.41382320070085	943.9923748102517	1771.456227126208	94.30348884904593	992.5455420218331	2003.399713268107	951.4673370579768	817.3298270105311	1964.82172458234	33.54917943175516	988.6017525965841	1915.10628960143	44.84368646855334	884.9830249543328	1933.378889527516	950.6267760505083	929.5407734747116	1896.129589668123	163.1105373015683	914.934413277727	1854.148047569409	196.117137082199	932.0758707063507	1934.106933184455	228.3970455602964	886.5404175283261	1893.116842367125	260.6096437161789	901.5133803298984	2039.780249484885	533.6697532087196	821.966381162128	1979.314036847753	520.7466324130841	859.9550553907249	2006.360288927961	635.9106373716564	804.2873697924767	1950.509559377517	625.2061154829295	844.1757613247779	2106.296243227867	866.0195477734429	1062.162971867896	1710.822129011369	293.946068744731	1057.599803422816	1678.926709838925	477.8717505283935	1013.374062557741	1697.811719781596	457.0240458335795	1059.409589706801	1721.86988829806	463.7707769265659	1016.747445807739	2057.078095180479	928.970583246382	1112.63300953622	1668.594244488834	263.7519682123684	1016.064268983965	1662.365386560285	312.7300974598467	1116.901055322529	1946.284045514896	939.6507197708974	1031.245410947763	1828.990502375651	417.8762638531634	1088.304911747926	1829.058081646728	454.8231277992878	1052.611234483042	1912.199983404222	429.8713299206771	1098.48202048628	1908.258583332005	468.1600817166847	1061.918534673318	2099.713945982009	513.9878228721154	1129.861407231335	2042.100155266946	494.1081868677059	1092.691307040689	2056.331316288321	615.2063563665351	1143.069879626058	1999.401630071353	594.1132650945049	1111.633888045709	
3940	26.26	2083.604027777021	878.1497632383374	863.300867835334	1724.226662347659	58.83602624626484	989.7160309906022	1747.560579826581	78.02365352470591	943.135018247135	1742.909508226274	100.0003516059444	991.2613208223538	2004.141111254271	954.5710419681747	817.1122890321011	1933.929647260024	33.39115095742297	988.626197837305	1885.063320460495	44.63786057022794	884.6636463780453	1933.735868836465	953.8361154991881	928.853886318671	1869.270168719529	166.3542374744082	913.9738959890547	1828.096305746956	200.2832126431879	931.2244587776684	1908.84160861353	230.7748526863885	885.8853037124209	1868.532978783928	263.9067453508112	900.802044514011	2025.851204753922	533.8707276125991	822.5101715313008	1964.169614398116	523.620173578111	859.5350200476795	1997.177759605084	637.621013783631	804.6518596073421	1940.430396245091	629.4444075462876	843.9623555909965	2106.063192856344	870.2151131672688	1062.049089865694	1737.812682963901	278.8355531929657	1057.016335411896	1691.851617247293	459.9628104690281	1013.694107234007	1712.370611938003	440.359818544206	1059.563420253643	1735.678102773713	449.1259629665009	1016.690112610216	2055.038991342769	932.9118441262101	1112.751338372387	1697.906267577252	245.7513417039628	1015.634789904789	1688.27474751186	293.492115272038	1116.52653948147	1946.058325475507	943.4782034585011	1030.65920104052	1846.760841755646	409.8630727682299	1087.654922573296	1844.4358155914	446.8894980411308	1052.163526001774	1928.975822580631	427.06598482913	1097.926582989764	1922.611373452494	465.083534313362	1061.336014531451	2113.33477175357	523.1792338853418	1129.463200930495	2056.811913143563	500.532980122314	1092.052580240148	2065.132716876057	622.1858717877915	1142.735145425438	2009.097697210292	598.1853367610928	1111.41451790765	
3941	26.26666666666667	2083.589439650535	880.1495820885312	862.911000294419	1695.332792230514	66.08418512241163	989.0947191232684	1719.17856462673	83.50473428232331	942.1707487901375	1715.192451126676	106.6921361687338	989.7869770386919	2005.665309840361	958.1336251555589	817.1040401362261	1903.139024797534	33.158603381203	988.6315573216041	1855.116808205974	44.4137073012898	884.2588427695795	1934.517198028673	957.3124239505923	928.2853038350598	1842.747612395443	170.4266541056722	912.6167960975095	1802.405388232774	205.0941803157318	930.2327174153182	1883.653715371408	234.1222454992557	884.8314138830201	1844.01674664208	268.0079803857401	899.9147527107154	2011.83187833768	535.069972106009	822.7676034700914	1949.100793712795	527.5844052623586	858.8761963141768	1988.080682715566	640.1212964972663	804.8821193445368	1930.542415345003	634.5547474275264	843.6133668060065	2106.240792515066	874.8777987614611	1061.875395169676	1765.635139471965	263.4491798548319	1056.527803292581	1705.13436773804	440.2755565072689	1013.480262365965	1727.146009782375	422.2803388061864	1059.239276593373	1749.615540866624	433.0339647730469	1016.188470304286	2053.8365111729	937.4541187266211	1112.870401460874	1728.572572254003	227.3117619880614	1015.287788136447	1715.111786404553	273.7967734362971	1116.025294004619	1946.262103328525	947.7654635029476	1030.226162949006	1864.262992988329	401.3941771218972	1086.849216021401	1859.39533241639	438.299596995854	1051.482678572454	1945.088048498137	424.1590979845875	1097.149262604039	1936.123186974284	461.7137685013187	1060.548065398913	2125.965681351907	533.2415917197366	1128.901492389344	2070.615905876323	508.1674027761685	1091.144537948638	2073.367518629256	629.9130132933575	1142.45215049313	2018.326826258988	603.3500866144472	1111.017719448246	
